<?xml version="1.0" encoding="utf-8"?>
<!-- Generator: Adobe Illustrator 28.0.0, SVG Export Plug-In . SVG Version: 6.00 Build 0)  -->
<svg version="1.1" id="Layer_1" xmlns="http://www.w3.org/2000/svg" xmlns:xlink="http://www.w3.org/1999/xlink" x="0px" y="0px"
	 viewBox="0 0 1920 1080" style="enable-background:new 0 0 1920 1080;" xml:space="preserve">
<style type="text/css">
	.st0{fill:#06050C;}
</style>
<g>
	<g>
		<g>
			<g>
				<g>
					<path class="st0" d="M1065.5,507.3L1065.5,507.3c0-0.1,0-0.3,0-0.4c0-0.1,0-0.3,0-0.4l0,0c-0.2-4.9-4-10.4-4-10.4l-21.8-32.6
						c-0.8-1.2,0.1-2.9,1.6-2.9h15c0.6,0,1.2,0.3,1.5,0.8c2.8,3.9,15.4,21.3,19.9,28c5,7.3,4.8,16.9,4.8,17.5
						c0,0.6,0.2,10.2-4.8,17.5c-4.5,6.7-17.1,24.1-19.9,28c-0.4,0.5-0.9,0.8-1.5,0.8h-15c-1.5,0-2.4-1.7-1.6-2.9l21.8-32.6
						C1061.5,517.7,1065.3,512.3,1065.5,507.3z"/>
					<path d="M1056.3,553.3h-15c-0.7,0-1.4-0.4-1.7-1c-0.3-0.6-0.3-1.4,0.1-2l21.8-32.6c0-0.1,3.7-5.5,3.9-10.3h0l0-0.1
						c0-0.1,0-0.3,0-0.4c0-0.1,0-0.3,0-0.4l0-0.1h0c-0.2-4.8-3.9-10.3-3.9-10.3l-21.8-32.6c-0.4-0.6-0.4-1.3-0.1-2
						c0.3-0.6,1-1,1.7-1h15c0.6,0,1.2,0.3,1.6,0.8c2.5,3.5,15.4,21.2,19.9,28c5,7.4,4.8,17.2,4.8,17.6c0,0.4,0.2,10.2-4.8,17.6
						c-4.6,6.7-17.4,24.5-19.9,28C1057.5,553,1056.9,553.3,1056.3,553.3z M1065.5,507.3L1065.5,507.3c-0.2,4.9-3.9,10.4-4,10.5
						l-21.8,32.6c-0.4,0.6-0.4,1.3-0.1,1.9c0.3,0.6,0.9,1,1.6,1h15c0.6,0,1.1-0.3,1.5-0.7c2.5-3.5,15.4-21.2,19.9-28
						c5-7.3,4.8-17.1,4.8-17.5c0-0.4,0.2-10.2-4.8-17.5c-4.6-6.7-17.4-24.5-19.9-28c-0.3-0.5-0.9-0.7-1.5-0.7h-15
						c-0.7,0-1.3,0.4-1.6,1c-0.3,0.6-0.3,1.3,0.1,1.9l21.8,32.6c0,0.1,3.8,5.5,4,10.4l0,0.1c0,0.1,0,0.2,0,0.3
						C1065.6,507.1,1065.6,507.2,1065.5,507.3z"/>
				</g>
				<g>
					<path class="st0" d="M1109.6,507.3L1109.6,507.3c0-0.1,0-0.3,0-0.4c0-0.1,0-0.3,0-0.4l0,0c0.2-4.9,4-10.4,4-10.4l21.8-32.6
						c0.8-1.2-0.1-2.9-1.6-2.9h-15c-0.6,0-1.2,0.3-1.5,0.8c-2.8,3.9-15.4,21.3-19.9,28c-5,7.3-4.8,16.9-4.8,17.5
						c0,0.6-0.2,10.2,4.8,17.5c4.5,6.7,17.1,24.1,19.9,28c0.4,0.5,0.9,0.8,1.5,0.8h15c1.5,0,2.4-1.7,1.6-2.9l-21.8-32.6
						C1113.5,517.7,1109.7,512.3,1109.6,507.3z"/>
					<path d="M1133.8,553.3h-15c-0.6,0-1.2-0.3-1.6-0.8c-2.5-3.5-15.4-21.2-19.9-28c-5-7.4-4.8-17.2-4.8-17.6
						c0-0.4-0.2-10.2,4.8-17.6c4.6-6.7,17.4-24.5,19.9-28c0.4-0.5,0.9-0.8,1.6-0.8h15c0.7,0,1.4,0.4,1.7,1c0.3,0.6,0.3,1.4-0.1,2
						l-21.8,32.6c0,0.1-3.7,5.5-3.9,10.3h0l0,0.1c0,0.1,0,0.3,0,0.4c0,0.1,0,0.3,0,0.4l0,0.1h0c0.2,4.8,3.9,10.3,3.9,10.3l21.8,32.6
						c0.4,0.6,0.4,1.3,0.1,2C1135.1,552.9,1134.5,553.3,1133.8,553.3z M1118.8,460.7c-0.6,0-1.1,0.3-1.5,0.7
						c-2.5,3.5-15.4,21.2-19.9,28c-5,7.3-4.8,17.1-4.8,17.5c0,0.4-0.2,10.2,4.8,17.5c4.6,6.7,17.4,24.5,19.9,28
						c0.3,0.5,0.9,0.7,1.5,0.7h15c0.7,0,1.3-0.4,1.6-1c0.3-0.6,0.3-1.3-0.1-1.9l-21.8-32.6c0-0.1-3.8-5.5-4-10.4l0-0.1
						c0-0.1,0-0.2,0-0.3c0-0.1,0-0.2,0-0.3l0,0c0.2-4.9,3.9-10.4,4-10.4l21.8-32.6c0.4-0.6,0.4-1.3,0.1-1.9c-0.3-0.6-0.9-1-1.6-1
						H1118.8z"/>
				</g>
			</g>
			<g>
				<path class="st0" d="M599.3,551.6l-39.4-89.2c-0.7-1.5,0.4-3.2,2.1-3.2h16.3c0.9,0,1.7,0.5,2.1,1.4l34.9,83.2h-6.7l34.7-83.2
					c0.3-0.8,1.2-1.4,2.1-1.4h16.1c1.6,0,2.7,1.7,2.1,3.1l-39,89.2c-0.4,0.8-1.2,1.3-2.1,1.3h-21.1
					C600.5,553,599.7,552.5,599.3,551.6z"/>
				<path class="st0" d="M698.1,451.7v12c0,1.2-1,2.2-2.2,2.2h-17.4c-1.2,0-2.2-1-2.2-2.2v-12c0-1.2,1-2.2,2.2-2.2h17.4
					C697.1,449.5,698.1,450.5,698.1,451.7z M679.9,481h14.3c1.2,0,2.2,1,2.2,2.2v67.5c0,1.2-1,2.2-2.2,2.2h-14.3
					c-1.2,0-2.2-1-2.2-2.2v-67.5C677.7,482,678.7,481,679.9,481z"/>
				<path class="st0" d="M712.4,529.1h15.9c0.9,0,1.7,0.6,2.1,1.4c1.2,2.6,3.2,4.9,6,6.6c3.3,2.1,7.7,3.1,13.1,3.1
					c3.7,0,6.5-0.3,8.5-1c2-0.7,3.4-1.7,4.2-3c0.8-1.3,1.2-2.8,1.2-4.4c0-2-0.6-3.6-1.9-4.7c-1.3-1.1-3.2-2-5.8-2.7
					c-2.6-0.7-5.9-1.3-10-1.9c-4.1-0.7-8-1.5-11.7-2.5c-3.8-1-7.1-2.2-10-3.8c-2.9-1.6-5.2-3.6-6.9-6.1c-1.7-2.5-2.5-5.5-2.5-9
					c0-3.5,0.8-6.6,2.5-9.3c1.7-2.7,4.1-5,7.1-6.8c3-1.8,6.6-3.2,10.7-4.2c4.1-1,8.5-1.4,13.2-1.4c7.1,0,13.1,1,17.8,3.1
					c4.7,2.1,8.3,5,10.6,8.7c2,3.1,3.1,6.6,3.4,10.4c0.1,1.3-1,2.4-2.3,2.4h-12.6c-1,0-1.8-0.7-2.2-1.7c-0.9-2.7-2.3-4.7-4.2-6.1
					c-2.3-1.6-5.9-2.4-10.7-2.4c-4.7,0-8.3,0.7-10.7,2.2c-2.4,1.4-3.6,3.4-3.6,5.9c0,2,0.8,3.6,2.2,4.7c1.5,1.1,3.7,2,6.7,2.7
					c2.9,0.7,6.6,1.4,11.1,2.2c3.8,0.8,7.4,1.6,10.8,2.6c3.4,1,6.5,2.2,9.2,3.7c2.7,1.5,4.9,3.5,6.4,5.9c1.6,2.5,2.4,5.6,2.4,9.3
					c0,4.6-1.3,8.5-4,11.7c-2.7,3.2-6.4,5.6-11.4,7.3c-4.9,1.7-10.8,2.5-17.7,2.5c-6.1,0-11.3-0.7-15.7-2c-4.4-1.3-8-3-10.9-5.1
					c-2.9-2.1-5.1-4.3-6.7-6.7c-1.6-2.4-2.7-4.6-3.3-6.7C712.4,532.2,712.2,530.4,712.4,529.1z"/>
				<path class="st0" d="M818.5,451.7v12c0,1.2-1,2.2-2.2,2.2h-17.4c-1.2,0-2.2-1-2.2-2.2v-12c0-1.2,1-2.2,2.2-2.2h17.4
					C817.5,449.5,818.5,450.5,818.5,451.7z M800.4,481h14.3c1.2,0,2.2,1,2.2,2.2v67.5c0,1.2-1,2.2-2.2,2.2h-14.3
					c-1.2,0-2.2-1-2.2-2.2v-67.5C798.1,482,799.1,481,800.4,481z"/>
				<path class="st0" d="M878.2,554.7c-9.1,0-17.1-1.4-24-4.3c-6.9-2.9-12.3-7.1-16.1-12.7c-3.9-5.5-5.8-12.4-5.8-20.5
					c0-8.1,1.9-15,5.8-20.6c3.9-5.6,9.2-9.9,16.1-12.8c6.9-2.9,14.9-4.3,24-4.3c9.1,0,17,1.4,23.8,4.3c6.8,2.9,12.1,7.2,16,12.8
					c3.9,5.6,5.8,12.5,5.8,20.6c0,8.1-1.9,14.9-5.8,20.5c-3.9,5.6-9.2,9.8-16,12.7C895.2,553.3,887.3,554.7,878.2,554.7z
					 M878.2,540.2c5,0,9.5-0.9,13.5-2.7c4-1.8,7.2-4.4,9.5-7.8c2.3-3.4,3.5-7.6,3.5-12.5c0-4.9-1.2-9.1-3.5-12.7
					c-2.3-3.5-5.5-6.2-9.4-8c-4-1.8-8.5-2.8-13.6-2.8c-5,0-9.6,0.9-13.6,2.8c-4.1,1.8-7.3,4.5-9.6,8c-2.4,3.5-3.5,7.7-3.5,12.7
					c0,4.9,1.2,9.1,3.5,12.5c2.3,3.4,5.5,6,9.6,7.8C868.5,539.3,873.1,540.2,878.2,540.2z"/>
				<path class="st0" d="M939.9,481h14.3c1.2,0,2.2,1,2.2,2.2v67.5c0,1.2-1,2.2-2.2,2.2h-14.3c-1.2,0-2.2-1-2.2-2.2v-67.5
					C937.7,482,938.7,481,939.9,481z M990,479.4c4.4,0,8.5,0.6,12.3,1.7c3.8,1.2,7,2.9,9.8,5.4c2.8,2.4,5,5.5,6.5,9.2
					c1.5,3.7,2.3,8.1,2.3,13.2v41.8c0,1.2-1,2.2-2.2,2.2h-14.3c-1.2,0-2.2-1-2.2-2.2v-38.4c0-6.1-1.5-10.5-4.4-13.4
					s-7.7-4.3-14.4-4.3c-5,0-9.6,1-13.6,2.9c-4.1,1.9-7.3,4.4-9.8,7.3c-2.5,2.9-4,6-4.3,9.2l-0.1-7.1c0-0.2,0-0.3,0-0.5
					c0.5-3.3,1.6-6.5,3.3-9.6c1.7-3.2,4.1-6.1,7-8.8c2.9-2.7,6.4-4.8,10.5-6.3C980.2,480.2,984.8,479.4,990,479.4z"/>
				<path class="st0" d="M1275.2,481h51.4c1.2,0,2.2,1,2.2,2.2v10.1c0,1.2-1,2.2-2.2,2.2h-51.4c-1.2,0-2.2-1-2.2-2.2v-10.1
					C1273,482,1274,481,1275.2,481z M1293.8,461.3h14.3c1.2,0,2.2,1,2.2,2.2v87.1c0,1.2-1,2.2-2.2,2.2h-14.3c-1.2,0-2.2-1-2.2-2.2
					v-87.1C1291.5,462.3,1292.5,461.3,1293.8,461.3z"/>
				<path class="st0" d="M1406.3,518.4l0.1,4.7c0,0.2,0,0.3,0,0.4c-0.2,1.3-0.7,3.2-1.4,5.7c-0.8,2.6-2,5.3-3.5,8.2
					c-1.6,2.9-3.6,5.7-6.2,8.3c-2.5,2.7-5.6,4.8-9.3,6.5c-3.7,1.7-8,2.5-13,2.5c-4,0-7.8-0.5-11.7-1.4c-3.8-1-7.3-2.6-10.4-4.9
					c-3.1-2.3-5.6-5.3-7.4-9.2c-1.8-3.9-2.8-8.7-2.8-14.6v-41.3c0-1.2,1-2.2,2.2-2.2h14.3c1.2,0,2.2,1,2.2,2.2v38.1
					c0,4.6,0.7,8.3,2.2,10.9c1.5,2.7,3.7,4.5,6.6,5.6c2.9,1.1,6.3,1.6,10.3,1.6c5.2,0,9.7-1.1,13.5-3.4c3.8-2.3,6.8-5,9.2-8.3
					C1403.8,524.5,1405.5,521.4,1406.3,518.4z M1421.9,553h-14.3c-1.2,0-2.2-1-2.2-2.2v-67.5c0-1.2,1-2.2,2.2-2.2h14.3
					c1.2,0,2.2,1,2.2,2.2v67.5C1424.1,552,1423.1,553,1421.9,553z"/>
				<path class="st0" d="M1476.2,554.6c-7.2,0-13.8-1.6-19.6-4.7c-5.8-3.1-10.4-7.5-13.8-13.2c-3.4-5.6-5.1-12.2-5.1-19.6
					c0-7.6,1.7-14.2,5-19.8c3.3-5.6,7.9-10,13.7-13.1c5.8-3.1,12.4-4.7,19.8-4.7c6.5,0,12,1,16.5,2.9c4.5,1.9,8.2,4.6,11,8
					c2.8,3.4,4.9,7.4,6.2,11.9c1.3,4.5,2,9.5,2,14.8c0,4.2-0.7,8.6-2,13c-1.4,4.4-3.4,8.4-6.2,12.2c-2.8,3.7-6.5,6.7-11,9
					C1488.1,553.4,1482.6,554.6,1476.2,554.6z M1482.3,540.1c5.7,0,10.6-1,14.8-2.9c4.1-1.9,7.3-4.6,9.6-8.1c2.2-3.5,3.3-7.5,3.3-12
					c0-4.9-1.1-9.1-3.4-12.5c-2.3-3.4-5.5-6.1-9.6-7.9c-4.1-1.8-9-2.8-14.7-2.8c-8,0-14.2,2.1-18.7,6.4c-4.4,4.2-6.7,9.8-6.7,16.8
					c0,4.6,1.1,8.7,3.2,12.1c2.1,3.4,5.1,6.1,8.9,8C1472.9,539.1,1477.3,540.1,1482.3,540.1z M1512.2,452.1h14.3
					c1.2,0,2.2,1,2.2,2.2v96.4c0,1.2-1,2.2-2.2,2.2l-13.3,0c-1.1,0-2.1-0.9-2.2-2c-0.2-1.9-0.4-4.1-0.6-6.6
					c-0.3-3.5-0.4-6.8-0.4-9.9v-80.1C1510,453.1,1511,452.1,1512.2,452.1z"/>
				<path class="st0" d="M1570.6,451.7v12c0,1.2-1,2.2-2.2,2.2H1551c-1.2,0-2.2-1-2.2-2.2v-12c0-1.2,1-2.2,2.2-2.2h17.4
					C1569.6,449.5,1570.6,450.5,1570.6,451.7z M1552.5,481h14.3c1.2,0,2.2,1,2.2,2.2v67.5c0,1.2-1,2.2-2.2,2.2h-14.3
					c-1.2,0-2.2-1-2.2-2.2v-67.5C1550.2,482,1551.2,481,1552.5,481z"/>
				<path class="st0" d="M1630.3,554.7c-9.1,0-17.1-1.4-24-4.3c-6.9-2.9-12.3-7.1-16.1-12.7c-3.9-5.5-5.8-12.4-5.8-20.5
					c0-8.1,1.9-15,5.8-20.6c3.9-5.6,9.2-9.9,16.1-12.8c6.9-2.9,14.9-4.3,24-4.3c9.1,0,17,1.4,23.8,4.3c6.8,2.9,12.1,7.2,16,12.8
					c3.9,5.6,5.8,12.5,5.8,20.6c0,8.1-1.9,14.9-5.8,20.5c-3.9,5.6-9.2,9.8-16,12.7C1647.3,553.3,1639.4,554.7,1630.3,554.7z
					 M1630.3,540.2c5,0,9.5-0.9,13.5-2.7c4-1.8,7.2-4.4,9.5-7.8c2.3-3.4,3.5-7.6,3.5-12.5c0-4.9-1.2-9.1-3.5-12.7
					c-2.3-3.5-5.5-6.2-9.4-8c-4-1.8-8.5-2.8-13.6-2.8c-5,0-9.6,0.9-13.6,2.8c-4.1,1.8-7.3,4.5-9.6,8c-2.4,3.5-3.6,7.7-3.6,12.7
					c0,4.9,1.2,9.1,3.5,12.5c2.3,3.4,5.5,6,9.6,7.8C1620.6,539.3,1625.2,540.2,1630.3,540.2z"/>
			</g>
		</g>
		<g>
			<path class="st0" d="M1175.3,521.8h16.5c0.8,0,1.5,0.6,1.7,1.4c0.6,2.7,2.1,5.2,4.3,7.5c2.7,2.7,6.2,4.8,10.6,6.3
				c4.4,1.5,9.3,2.3,14.7,2.3c5,0,9-0.5,12.2-1.6c3.2-1.1,5.6-2.6,7.1-4.5c1.6-1.9,2.3-4.3,2.3-7c0-2.6-1-4.6-2.9-6
				c-1.9-1.4-5-2.6-9.2-3.5c-4.2-0.9-9.7-1.9-16.5-2.8c-5.3-0.8-10.4-1.9-15.2-3.3c-4.8-1.4-9-3.2-12.6-5.5c-3.6-2.2-6.5-5-8.6-8.2
				c-2.1-3.3-3.1-7.1-3.1-11.6c0-5.5,1.6-10.4,4.7-14.6c3.2-4.2,7.8-7.4,14.1-9.8c6.2-2.3,13.8-3.5,22.9-3.5
				c13.6,0,24.1,2.9,31.4,8.7c6.9,5.4,10.5,12.8,10.7,22c0,1-0.8,1.8-1.8,1.8h-15.6c-0.9,0-1.6-0.7-1.7-1.6c-0.7-4.9-3-8.5-7.1-10.8
				c-4.4-2.5-10-3.8-16.7-3.8c-5.2,0-9.6,0.6-13.3,1.9c-4.4,1.5-7.9,5.2-8.1,9.9c-0.1,1.9,0.4,3.6,1.4,5c1,1.3,2.6,2.5,5,3.4
				c2.3,1,5.5,1.9,9.5,2.8c4,0.9,8.9,1.7,14.9,2.6c5.5,0.8,10.6,1.8,15.1,3.1c4.5,1.3,8.4,3,11.7,5.1c3.3,2.1,5.8,4.7,7.5,7.9
				c1.7,3.2,2.6,7.1,2.6,11.8c0,5.7-1.5,10.7-4.4,14.9c-3,4.2-7.5,7.5-13.7,9.8c-6.2,2.3-14.2,3.5-24,3.5c-7,0-13.2-0.8-18.5-2.3
				s-10-3.5-13.8-6c-3.9-2.5-7-5.3-9.5-8.3c-2.4-3-4.2-6-5.2-9c-0.8-2.3-1.2-4.5-1.3-6.4C1173.5,522.5,1174.3,521.8,1175.3,521.8z"
				/>
		</g>
	</g>
	<g>
		<g>
			<path class="st0" d="M306.5,508.8L306.5,508.8c0-0.3,0-0.6,0-0.9c0-0.3,0-0.6,0-0.9l0,0c-0.4-11.8-9.5-24.9-9.5-24.9L245,404.2
				c-2-3,0.1-6.9,3.7-6.9h35.8c1.4,0,2.8,0.7,3.6,1.8c6.7,9.2,36.7,50.8,47.6,66.8c11.8,17.5,11.4,40.5,11.4,41.9
				c0,1.4,0.4,24.4-11.4,41.9c-10.8,16-40.9,57.6-47.6,66.8c-0.8,1.2-2.2,1.8-3.6,1.8h-35.8c-3.6,0-5.7-4-3.7-6.9l52.1-77.8
				C297.1,533.6,306.1,520.6,306.5,508.8z"/>
			<path d="M284.6,618.5h-35.8c-1.7,0-3.2-0.9-4.1-2.4c-0.8-1.5-0.7-3.3,0.2-4.7l52.1-77.8c0.1-0.1,8.9-13.1,9.4-24.6h0l0-0.1
				c0-0.3,0-0.6,0-0.9c0-0.3,0-0.6,0-0.9l0-0.1h0c-0.5-11.6-9.3-24.5-9.4-24.6l-52.1-77.8c-1-1.4-1-3.2-0.2-4.7
				c0.8-1.5,2.3-2.4,4.1-2.4h35.8c1.5,0,2.9,0.7,3.7,1.9c6,8.3,36.7,50.7,47.6,66.8c11.9,17.6,11.4,41,11.4,42c0,1,0.5,24.4-11.4,42
				c-10.9,16.1-41.5,58.5-47.6,66.8C287.4,617.8,286,618.5,284.6,618.5z M306.7,508.7L306.7,508.7c-0.4,11.8-9.4,24.9-9.5,25
				l-52.1,77.8c-0.9,1.3-1,3-0.2,4.4c0.8,1.4,2.2,2.3,3.8,2.3h35.8c1.4,0,2.7-0.7,3.5-1.8c6-8.3,36.7-50.7,47.6-66.8
				c11.9-17.5,11.4-40.8,11.4-41.8c0-1,0.5-24.3-11.4-41.8c-10.9-16.1-41.5-58.5-47.6-66.8c-0.8-1.1-2.1-1.8-3.5-1.8h-35.8
				c-1.6,0-3,0.9-3.8,2.3c-0.8,1.4-0.7,3.1,0.2,4.4l52.1,77.8c0.1,0.1,9.1,13.2,9.5,24.9l0,0.1c0,0.3,0,0.5,0,0.8
				C306.7,508.1,306.7,508.4,306.7,508.7z"/>
		</g>
		<g>
			<path class="st0" d="M411.8,508.8L411.8,508.8c0-0.3,0-0.6,0-0.9c0-0.3,0-0.6,0-0.9l0,0c0.4-11.8,9.5-24.9,9.5-24.9l52.1-77.8
				c2-3-0.1-6.9-3.7-6.9h-35.8c-1.4,0-2.8,0.7-3.6,1.8c-6.7,9.2-36.7,50.8-47.6,66.8c-11.8,17.5-11.4,40.5-11.4,41.9
				c0,1.4-0.4,24.4,11.4,41.9c10.8,16,40.9,57.6,47.6,66.8c0.8,1.2,2.2,1.8,3.6,1.8h35.8c3.6,0,5.7-4,3.7-6.9l-52.1-77.8
				C421.3,533.6,412.2,520.6,411.8,508.8z"/>
			<path d="M469.6,618.5h-35.8c-1.5,0-2.9-0.7-3.7-1.9c-6-8.3-36.7-50.7-47.6-66.8c-11.9-17.6-11.4-41-11.4-42c0-1-0.5-24.4,11.4-42
				c10.9-16.1,41.5-58.5,47.6-66.8c0.9-1.2,2.3-1.9,3.7-1.9h35.8c1.7,0,3.2,0.9,4.1,2.4c0.8,1.5,0.7,3.3-0.2,4.7l-52.1,77.8
				c-0.1,0.1-8.9,13.1-9.4,24.6h0l0,0.1c0,0.3,0,0.6,0,0.9c0,0.3,0,0.6,0,0.9l0,0.1h0c0.5,11.6,9.3,24.5,9.4,24.6l52.1,77.8
				c1,1.4,1,3.2,0.2,4.7C472.9,617.6,471.3,618.5,469.6,618.5z M433.8,397.5c-1.4,0-2.7,0.7-3.5,1.8c-6,8.3-36.7,50.7-47.6,66.8
				c-11.9,17.5-11.4,40.8-11.4,41.8c0,1-0.5,24.3,11.4,41.8c10.9,16.1,41.5,58.5,47.6,66.8c0.8,1.1,2.1,1.8,3.5,1.8h35.8
				c1.6,0,3-0.9,3.8-2.3c0.8-1.4,0.7-3.1-0.2-4.4l-52.1-77.8c-0.1-0.1-9.1-13.2-9.5-24.9l0-0.1c0-0.3,0-0.5,0-0.8c0-0.3,0-0.6,0-0.8
				l0-0.1c0.4-11.7,9.4-24.8,9.5-24.9l52.1-77.8c0.9-1.3,1-3,0.2-4.4c-0.8-1.4-2.2-2.3-3.8-2.3H433.8z"/>
		</g>
	</g>
</g>
</svg>
